<svg version="1.1" id="Layer_1" xmlns="http://www.w3.org/2000/svg" xmlns:xlink="http://www.w3.org/1999/xlink" x="0px" y="0px"
	 width="100%" viewBox="0 0 97 96" enable-background="new 0 0 97 96" xml:space="preserve">
<path fill="#4673C4" opacity="1.000000" stroke="none" 
	d="
M64.000000,97.000000 
	C54.645771,97.000000 45.291542,97.000000 35.801266,96.719002 
	C35.338997,96.064163 35.083328,95.487068 34.676373,95.345818 
	C19.047260,89.920776 8.393203,79.504662 2.845968,63.872139 
	C2.685528,63.420006 1.635332,63.283611 1.000000,63.000000 
	C1.000000,53.979103 1.000000,44.958210 1.280969,35.801262 
	C1.935200,35.339478 2.509479,35.084549 2.652732,34.677811 
	C8.260638,18.755310 18.751879,7.850616 35.089375,2.848549 
	C35.539391,2.710767 35.702892,1.637201 36.000000,1.000000 
	C44.687565,1.000000 53.375126,1.000000 62.205429,1.296638 
	C62.826607,2.026906 63.235489,2.693775 63.793617,2.860233 
	C79.991707,7.691223 90.526230,18.335339 96.150253,34.119007 
	C96.312561,34.574539 97.363434,34.713459 98.000000,35.000000 
	C98.000000,44.020897 98.000000,53.041790 97.714943,62.199131 
	C95.707855,65.959557 94.261871,69.748589 92.212105,73.176598 
	C86.028023,83.518738 76.940132,90.468544 65.873596,95.005615 
	C65.105598,95.320480 64.617996,96.319260 64.000000,97.000000 
M58.244385,7.978478 
	C57.750755,7.899487 57.256241,7.825645 56.763626,7.740764 
	C34.813820,3.958622 13.503549,17.698517 8.258177,39.015766 
	C3.066149,60.116226 15.108807,81.854111 35.823624,88.773407 
	C56.930115,95.823540 80.125519,85.545181 88.660126,65.360466 
	C98.856766,41.244976 85.608437,15.614754 58.244385,7.978478 
z"/>
<path fill="#000000" opacity="1.000000" stroke="none" 
	d="
M35.531342,1.000000 
	C35.702892,1.637201 35.539391,2.710767 35.089375,2.848549 
	C18.751879,7.850616 8.260638,18.755310 2.652732,34.677811 
	C2.509479,35.084549 1.935200,35.339478 1.280969,35.332603 
	C1.000000,23.739021 1.000000,12.478042 1.000000,1.000000 
	C12.353307,1.000000 23.707994,1.000000 35.531342,1.000000 
z"/>
<path fill="#000000" opacity="1.000000" stroke="none" 
	d="
M98.000000,34.531342 
	C97.363434,34.713459 96.312561,34.574539 96.150253,34.119007 
	C90.526230,18.335339 79.991707,7.691223 63.793617,2.860233 
	C63.235489,2.693775 62.826607,2.026906 62.674080,1.296638 
	C74.592186,1.000000 86.184364,1.000000 98.000000,1.000000 
	C98.000000,12.019889 98.000000,23.041286 98.000000,34.531342 
z"/>
<path fill="#000000" opacity="1.000000" stroke="none" 
	d="
M1.000000,63.468658 
	C1.635332,63.283611 2.685528,63.420006 2.845968,63.872139 
	C8.393203,79.504662 19.047260,89.920776 34.676373,95.345818 
	C35.083328,95.487068 35.338997,96.064163 35.332611,96.719002 
	C23.740093,97.000000 12.480186,97.000000 1.000000,97.000000 
	C1.000000,85.980080 1.000000,74.958702 1.000000,63.468658 
z"/>
<path fill="#000000" opacity="1.000000" stroke="none" 
	d="
M64.468658,97.000000 
	C64.617996,96.319260 65.105598,95.320480 65.873596,95.005615 
	C76.940132,90.468544 86.028023,83.518738 92.212105,73.176598 
	C94.261871,69.748589 95.707855,65.959557 97.714943,62.667786 
	C98.000000,74.259911 98.000000,85.519814 98.000000,97.000000 
	C86.980080,97.000000 75.958702,97.000000 64.468658,97.000000 
z"/>
<path fill="#BDCDEA" opacity="1.000000" stroke="none" 
	d="
M58.658607,8.049693 
	C85.608437,15.614754 98.856766,41.244976 88.660126,65.360466 
	C80.125519,85.545181 56.930115,95.823540 35.823624,88.773407 
	C15.108807,81.854111 3.066149,60.116226 8.258177,39.015766 
	C13.503549,17.698517 34.813820,3.958622 56.763626,7.740764 
	C57.256241,7.825645 57.750755,7.899487 58.658607,8.049693 
M21.029230,52.866295 
	C21.679686,54.864403 22.330141,56.862507 22.175507,58.948338 
	C21.139509,59.629200 19.223307,60.343452 19.247610,60.984089 
	C19.301027,62.392090 20.335522,63.762867 21.035175,65.892044 
	C21.417217,69.876694 23.740238,71.908981 27.612167,71.924438 
	C43.552898,71.988068 59.495785,72.083374 75.434082,71.875481 
	C81.013680,71.802711 81.961716,68.339554 80.924980,62.979599 
	C79.855675,57.451187 80.906609,51.510971 81.065918,45.751915 
	C81.073509,45.477386 81.442764,45.220943 81.621399,44.941868 
	C85.281242,39.224239 84.088158,36.405663 77.062958,34.139431 
	C75.713654,33.760464 74.365807,33.057896 73.014832,33.051846 
	C56.881557,32.979565 40.747795,33.000675 24.614252,33.037266 
	C23.516054,33.039757 22.418583,33.361912 20.192162,33.713753 
	C21.300171,35.882206 22.134743,37.515526 23.028967,39.865532 
	C23.676329,41.861179 24.323690,43.856823 24.127426,45.934589 
	C22.574413,46.056370 21.021402,46.178146 18.086050,46.408325 
	C19.288471,48.802155 20.128996,50.475498 21.029230,52.866295 
z"/>
<path fill="#A9B7D0" opacity="1.000000" stroke="none" 
	d="
M24.971052,45.852470 
	C24.323690,43.856823 23.676329,41.861179 23.387680,39.454906 
	C24.790903,39.089359 25.835411,39.134438 26.961800,39.546539 
	C28.873917,40.958786 30.660215,42.802212 32.542282,42.905815 
	C39.321308,43.278961 46.132629,43.076244 52.931736,43.070721 
	C60.393967,43.064655 67.859337,43.142712 75.315575,42.921997 
	C76.707199,42.880798 78.062172,41.601662 79.434067,40.893822 
	C78.760818,39.888611 78.087578,38.883404 77.366676,37.511242 
	C77.342239,36.407917 77.365456,35.671547 77.388672,34.935177 
	C84.088158,36.405663 85.281242,39.224239 81.621399,44.941868 
	C81.442764,45.220943 81.073509,45.477386 81.065918,45.751915 
	C80.906609,51.510971 79.855675,57.451187 80.924980,62.979599 
	C81.961716,68.339554 81.013680,71.802711 75.434082,71.875481 
	C59.495785,72.083374 43.552898,71.988068 27.612167,71.924438 
	C23.740238,71.908981 21.417217,69.876694 21.337574,65.472687 
	C22.089905,65.084404 22.539835,65.115486 23.037613,65.470100 
	C24.374491,66.899567 25.663525,68.005508 27.365356,69.180679 
	C43.868153,69.203819 59.958153,69.157753 76.307739,69.188972 
	C80.438148,68.388550 80.469620,66.535042 77.658401,63.875938 
	C76.718544,63.471687 76.020805,63.212090 75.228775,62.547783 
	C75.045525,58.610722 72.462852,59.024067 70.165016,59.015972 
	C54.436890,58.960541 38.708740,58.911629 22.980597,58.860615 
	C22.330141,56.862507 21.679686,54.864403 21.334599,52.459747 
	C22.089937,52.084034 22.539906,52.114864 23.042992,52.485916 
	C24.446928,54.180004 25.797745,55.533859 27.607895,56.882988 
	C43.995228,56.881439 59.923229,56.884613 76.188545,56.817913 
	C79.516914,55.447544 80.960167,53.775509 77.658272,50.877457 
	C76.718536,50.472424 76.020767,50.212452 75.257339,49.539680 
	C75.130814,45.528500 72.472679,46.032692 70.208992,46.022102 
	C55.129742,45.951561 40.050377,45.906086 24.971052,45.852470 
z"/>
<path fill="#4472C4" opacity="1.000000" stroke="none" 
	d="
M26.879919,39.179516 
	C25.835411,39.134438 24.790903,39.089359 23.357857,39.096561 
	C22.134743,37.515526 21.300171,35.882206 20.192162,33.713753 
	C22.418583,33.361912 23.516054,33.039757 24.614252,33.037266 
	C40.747795,33.000675 56.881557,32.979565 73.014832,33.051846 
	C74.365807,33.057896 75.713654,33.760464 77.225815,34.537304 
	C77.365456,35.671547 77.342239,36.407917 76.992218,37.760277 
	C74.365723,38.588310 72.067314,38.967438 69.766129,38.985119 
	C55.471069,39.095005 41.175392,39.123810 26.879919,39.179516 
z"/>
<path fill="#4472C4" opacity="1.000000" stroke="none" 
	d="
M22.989874,52.145691 
	C22.539906,52.114864 22.089937,52.084034 21.304745,52.101025 
	C20.128996,50.475498 19.288471,48.802155 18.086050,46.408325 
	C21.021402,46.178146 22.574413,46.056370 24.549240,45.893532 
	C40.050377,45.906086 55.129742,45.951561 70.208992,46.022102 
	C72.472679,46.032692 75.130814,45.528500 75.034042,49.884270 
	C72.857117,51.098145 70.841858,51.929333 68.817879,51.951126 
	C54.207909,52.108437 39.596172,52.101944 24.652639,52.117088 
	C23.876814,52.106449 23.433344,52.126068 22.989874,52.145691 
z"/>
<path fill="#4472C4" opacity="1.000000" stroke="none" 
	d="
M22.989767,65.146576 
	C22.539835,65.115486 22.089905,65.084404 21.304749,65.101082 
	C20.335522,63.762867 19.301027,62.392090 19.247610,60.984089 
	C19.223307,60.343452 21.139509,59.629200 22.578053,58.904476 
	C38.708740,58.911629 54.436890,58.960541 70.165016,59.015972 
	C72.462852,59.024067 75.045525,58.610722 75.005463,62.892365 
	C72.857071,64.098145 70.841736,64.929291 68.817665,64.951126 
	C54.207157,65.108734 39.594879,65.102539 24.651102,65.118057 
	C23.875950,65.107437 23.432858,65.127007 22.989767,65.146576 
z"/>
<path fill="#8C98AD" opacity="1.000000" stroke="none" 
	d="
M24.984995,52.147354 
	C39.596172,52.101944 54.207909,52.108437 68.817879,51.951126 
	C70.841858,51.929333 72.857117,51.098145 75.099701,50.297070 
	C76.020767,50.212452 76.718536,50.472424 77.626701,51.226345 
	C77.175140,53.442795 76.513184,55.165295 75.851227,56.887791 
	C59.923229,56.884613 43.995228,56.881439 27.481915,56.581947 
	C26.259399,54.906200 25.622196,53.526779 24.984995,52.147354 
z"/>
<path fill="#8C98AD" opacity="1.000000" stroke="none" 
	d="
M24.983164,65.148254 
	C39.594879,65.102539 54.207157,65.108734 68.817665,64.951126 
	C70.841736,64.929291 72.857071,64.098145 75.099762,63.297073 
	C76.020805,63.212090 76.718544,63.471687 77.629730,64.217552 
	C77.244843,66.173103 76.646500,67.642395 76.048149,69.111679 
	C59.958153,69.157753 43.868153,69.203819 27.213589,68.898544 
	C26.093737,67.414207 25.538450,66.281235 24.983164,65.148254 
z"/>
<path fill="#8C98AD" opacity="1.000000" stroke="none" 
	d="
M26.961800,39.546539 
	C41.175392,39.123810 55.471069,39.095005 69.766129,38.985119 
	C72.067314,38.967438 74.365723,38.588310 77.039879,38.127232 
	C78.087578,38.883404 78.760818,39.888611 79.434067,40.893822 
	C78.062172,41.601662 76.707199,42.880798 75.315575,42.921997 
	C67.859337,43.142712 60.393967,43.064655 52.931736,43.070721 
	C46.132629,43.076244 39.321308,43.278961 32.542282,42.905815 
	C30.660215,42.802212 28.873917,40.958786 26.961800,39.546539 
z"/>
<path fill="#A0AEC5" opacity="1.000000" stroke="none" 
	d="
M76.188545,56.817913 
	C76.513184,55.165295 77.175140,53.442795 77.868668,51.371407 
	C80.960167,53.775509 79.516914,55.447544 76.188545,56.817913 
z"/>
<path fill="#A0AEC5" opacity="1.000000" stroke="none" 
	d="
M76.307739,69.188972 
	C76.646500,67.642395 77.244843,66.173103 77.871864,64.362206 
	C80.469620,66.535042 80.438148,68.388550 76.307739,69.188972 
z"/>
<path fill="#A0AEC5" opacity="1.000000" stroke="none" 
	d="
M24.652639,52.117088 
	C25.622196,53.526779 26.259399,54.906200 27.022581,56.586670 
	C25.797745,55.533859 24.446928,54.180004 23.042992,52.485916 
	C23.433344,52.126068 23.876814,52.106449 24.652639,52.117088 
z"/>
<path fill="#A0AEC5" opacity="1.000000" stroke="none" 
	d="
M24.651102,65.118057 
	C25.538450,66.281235 26.093737,67.414207 26.800791,68.829323 
	C25.663525,68.005508 24.374491,66.899567 23.037613,65.470093 
	C23.432858,65.127007 23.875950,65.107437 24.651102,65.118057 
z"/>
</svg>